<?xml version="1.0" encoding="UTF-8"?>
<svg version="1.2" baseProfile="tiny-ps"
  xmlns="http://www.w3.org/2000/svg"
  xmlns:xlink="http://www.w3.org/1999/xlink"
  viewBox="0 0 100 100"
  width="100" height="100">
  <title>RK Consulting</title>
  <!-- White circular background -->
  <circle cx="50" cy="50" r="50" fill="#ffffff"/>
  <!-- Blue outer ring -->
  <circle cx="50" cy="50" r="48" fill="#0260FF"/>
  <!-- Icon shape (bolt/lightning) centred inside circle -->
  <path
    fill="#ffffff"
    d="
      M50 15
      C30.67 15 15 30.67 15 50
      C15 69.33 30.67 85 50 85
      C69.33 85 85 69.33 85 50
      C85 30.67 69.33 15 50 15Z

      M60.3 28.2
      C61.06 25.29 58.44 23.7 56.12 25.41
      L28 44.47
      C25.49 46.25 25.9 50 28.74 50
      H37.24 V49.93 H54.21
      L40.55 54.9
      L34.85 75.81
      C34.1 78.72 36.72 80.31 39.04 78.6
      L72.01 55.53
      C74.52 53.75 74.11 50 71.27 50
      H58.17
      Z
    "
  />
</svg>
